<svg width="404" height="100" viewBox="0 0 404 100" fill="none" xmlns="http://www.w3.org/2000/svg">
<path d="M36.741 52.928H22.9745L30.3066 29.0055L36.741 52.928ZM15.8341 79.2912L20.5338 63.5379H39.0809L43.4781 79.2509H60.6232L43.589 19.3437C42.5805 15.8038 40.4626 14.1699 36.741 14.1699H12.4252V19.8278H14.4423C16.9838 19.8278 18.3554 20.8364 18.3554 22.7627C18.3554 24.0435 18.073 25.1126 17.0645 28.0272L0 79.2912H15.8341Z" fill="#919191"/>
<path d="M80.4606 79.2912V19.1622C80.4606 16.0256 78.6251 14.1699 75.5894 14.1699H60.5117V19.8278H61.5203C64.0517 19.8278 65.1308 20.907 65.1308 23.4686V79.2912H80.4606Z" fill="#919191"/>
<path d="M106.522 79.2912V19.1622C106.522 16.0256 104.656 14.1699 101.641 14.1699H86.6133V19.8278H87.6218C90.1633 19.8278 91.2425 20.907 91.2425 23.4686V79.2912H106.522Z" fill="#919191"/>
<path d="M133.258 20.1096C133.258 15.7426 130.02 13.0498 124.473 13.0498C118.926 13.0498 115.669 15.6922 115.669 20.1096C115.669 24.527 119.007 27.1693 124.473 27.1693C129.94 27.1693 133.258 24.5471 133.258 20.1096ZM132.965 79.2906V35.4595C132.965 32.3331 131.11 30.4874 128.074 30.4874H113.238V36.0344H114.116C116.647 36.0344 117.726 37.2043 117.726 39.7458V79.2906H132.965Z" fill="#919191"/>
<path d="M166.53 55.8529V65.3433C163.978 67.9756 160.872 69.5892 158.24 69.5892C155.607 69.5892 154.528 68.2378 154.528 64.5465C154.528 60.8553 155.295 59.2921 158.038 58.2331C160.769 57.1211 163.618 56.3226 166.53 55.8529V55.8529ZM145.915 44.4565C150.6 42.1323 155.726 40.8327 160.953 40.6442C165.067 40.6442 166.53 42.1066 166.53 46.3727V47.4619C160.287 48.4704 158.33 48.8537 154.811 49.6303C152.839 50.0645 150.909 50.6685 149.042 51.4355C142.88 53.9065 139.965 58.6668 139.965 65.9787C139.965 75.2572 143.999 79.7351 152.259 79.7351C155.069 79.7466 157.855 79.223 160.468 78.1921C162.839 77.113 165.043 75.7001 167.014 73.9965V74.6823C167.014 77.708 168.567 79.251 171.603 79.251H185.571V74.0369H184.885C182.253 74.0369 181.285 72.8569 181.285 69.7405V46.4937C181.285 34.0988 176.978 29.7822 164.563 29.7822C160.627 29.8019 156.706 30.2653 152.874 31.1639C149.254 31.9713 145.766 33.2888 142.516 35.077L145.915 44.4565Z" fill="#919191"/>
<path d="M207.809 79.2914V46.2921C210.361 43.4581 212.983 42.1772 216.008 42.1772C219.246 42.1772 220.043 43.4581 220.043 48.3697V79.2914H235.272V46.1105C235.272 38.3851 234.717 35.9445 232.246 33.3223C230.229 31.0531 227.072 29.9033 223.048 29.9033C217.088 29.9033 212.892 31.7489 207.254 37.0236V35.0771C207.254 32.0515 205.671 30.4883 202.555 30.4883H188.082V36.0352H188.959C191.491 36.0352 192.58 37.2051 192.58 39.7467V79.2914H207.809Z" fill="#919191"/>
<path d="M280.444 69.0444H259.194L279.516 40.5532V30.4678H247.646C244.036 30.4678 242.372 32.1218 242.372 35.7424V44.6176H248.029V43.7502C248.029 41.5012 249.199 40.4321 251.63 40.4321H262.583L242.049 69.2461V79.3315H280.373L280.444 69.0444Z" fill="#919191"/>
<path d="M360.39 78.0508V22.8736C360.39 18.4764 358.827 16.9939 354.561 16.9939H341.642V23.1964H342.418C345.363 23.1964 345.938 23.862 345.938 27.4121V78.0508H360.39ZM366.764 78.0508H381.106V35.077C381.106 30.7604 379.442 29.2073 375.236 29.2073H366.764V78.0508ZM339.604 78.0508V29.2476H331.102C326.897 29.2476 325.253 30.8008 325.253 35.1173V78.0508H339.604ZM394.681 50.0033C394.681 74.3192 377.193 91.9989 353.179 91.9989C329.166 91.9989 311.638 74.3192 311.638 50.0033C311.638 25.6875 329.156 8.00779 353.179 8.00779C377.203 8.00779 394.681 25.7883 394.681 50.0033ZM403.173 50.0033C403.173 21.4113 381.782 0 353.179 0C324.577 0 303.166 21.4113 303.166 50.0033C303.166 78.5954 324.557 99.9966 353.179 99.9966C381.802 99.9966 403.173 78.666 403.173 50.0033Z" fill="#919191"/>
</svg>
