<svg width="691" height="98" viewBox="0 0 691 98" fill="none" xmlns="http://www.w3.org/2000/svg">
<path d="M87.8975 96.0337V0H109.772V96.0337H87.8975ZM513.113 60.1544C513.113 36.9463 495.107 22.5412 474.033 22.5412C452.826 22.5412 434.953 37.0797 434.953 60.1544C434.953 83.3626 452.959 97.901 474.033 97.901C495.107 97.901 513.113 83.2292 513.113 60.1544ZM491.506 60.1544C491.506 72.292 483.37 79.0944 473.9 79.0944C464.43 79.0944 456.293 72.292 456.293 60.1544C456.293 47.8835 464.43 41.3478 473.9 41.3478C483.37 41.3478 491.506 47.8835 491.506 60.1544ZM79.0944 68.424C79.0944 57.6202 73.4925 49.3507 63.4889 45.616C72.9589 40.4142 76.2934 33.6118 76.2934 25.609C76.2934 11.6041 66.1566 0 43.4819 0.13338H0V96.1671H45.3493C68.1573 96.0337 79.0944 84.6964 79.0944 68.424ZM53.0853 28.41C53.0853 34.9456 48.9505 38.6802 40.9477 38.6802H22.808V18.6732H40.9477C48.2836 18.6732 53.0853 21.8743 53.0853 28.41ZM55.086 66.9568C55.086 73.2257 50.6845 77.3605 42.5483 77.3605H22.808V56.5532H42.5483C50.4177 56.5532 55.086 60.5546 55.086 66.9568ZM269.561 42.1481C263.559 29.6104 252.355 22.6746 235.416 22.6746C215.409 22.6746 197.536 35.2124 197.536 60.1544C197.536 84.4296 213.275 97.901 235.149 97.901C250.488 97.901 263.426 91.7655 269.561 78.5609L251.955 69.491C248.754 75.3598 243.819 79.0944 235.949 79.0944C225.813 79.0944 219.277 71.8919 219.277 60.1544C219.277 48.417 226.746 41.3478 235.816 41.3478C242.885 41.3478 248.22 44.549 251.555 51.4847L269.561 42.1481ZM591.941 42.1481C585.939 29.6104 574.735 22.6746 557.796 22.6746C537.789 22.6746 519.916 35.2124 519.916 60.1544C519.916 84.4296 535.655 97.901 557.529 97.901C572.868 97.901 585.806 91.7655 591.941 78.5609L574.335 69.491C571.134 75.3598 566.199 79.0944 558.329 79.0944C548.192 79.0944 541.657 71.8919 541.657 60.1544C541.657 48.417 549.126 41.3478 558.196 41.3478C565.265 41.3478 570.6 44.549 573.935 51.4847L591.941 42.1481ZM408.543 96.0337L390.27 63.7557H376.265V96.0337H353.724V0H394.405C416.413 0 431.752 10.537 431.752 31.211C431.752 44.4156 425.216 53.7522 413.612 59.4875L434.686 96.0337H408.543ZM376.399 44.6823H393.205C403.608 44.6823 408.677 38.8136 408.677 31.8779C408.677 23.6083 403.875 19.0734 393.205 19.0734H376.399V44.6823ZM193.935 94.8333V79.7613C193.001 80.0281 191.667 80.2948 190.2 80.2948C187.399 80.2948 185.932 78.8277 185.932 76.2934V51.3514C185.932 32.6781 173.394 22.808 152.72 22.808C139.249 22.808 127.778 27.7431 120.576 34.1453L132.713 47.7501C137.515 43.4819 143.917 40.8143 150.186 40.8143C159.789 40.8143 164.324 45.616 164.324 53.4854V55.7529C159.789 54.6859 154.054 53.6188 147.118 53.6188C129.646 53.6188 118.308 62.0218 118.308 75.8933C118.308 90.165 127.778 97.6343 142.45 97.6343C152.454 97.6343 161.39 93.4995 166.058 88.1643C168.859 95.2334 174.995 97.1007 180.997 97.1007C185.132 97.2341 189.933 96.5672 193.935 94.8333ZM164.458 72.292C164.458 78.8277 158.189 83.0958 150.986 83.0958C144.184 83.0958 140.849 79.6279 140.849 74.8263C140.849 69.7578 144.584 66.0232 152.187 66.0232C156.855 66.0232 160.99 66.8234 164.458 67.6237V72.292ZM670.102 96.0337L644.36 51.3514L668.501 25.0755H644.226L618.75 53.3521V0.13338H597.01V96.1671H618.75V78.8277L629.154 67.7571L645.427 96.1671H670.102V96.0337ZM347.989 96.0337L322.246 51.3514L346.388 25.0755H321.846L296.637 53.3521V0.13338H274.896V96.1671H296.637V78.8277L307.041 67.7571L323.313 96.1671H347.989V96.0337ZM683.44 82.6957C687.975 82.6957 690.642 85.4967 690.642 89.7648C690.642 94.033 687.975 96.834 683.44 96.834C678.905 96.834 676.237 94.033 676.237 89.7648C676.237 85.4967 678.905 82.6957 683.44 82.6957ZM683.44 95.9003C687.041 95.9003 689.442 93.7662 689.442 89.7648C689.442 85.7634 686.908 83.6293 683.44 83.6293C679.839 83.6293 677.438 85.7634 677.438 89.7648C677.304 93.8996 679.839 95.9003 683.44 95.9003ZM680.639 86.1636H683.573C685.307 86.1636 686.241 87.0972 686.241 88.431C686.241 89.6314 685.707 90.2984 684.774 90.6985L686.107 93.2327H684.774L683.573 90.9653H681.973V93.2327H680.639V86.1636ZM681.973 87.2306V89.7648H683.44C684.373 89.7648 684.907 89.4981 684.907 88.5644C684.907 87.7641 684.507 87.364 683.573 87.364H681.973V87.2306Z" fill="#919191"/>
</svg>
