<svg width="440" height="96" viewBox="0 0 440 96" fill="none" xmlns="http://www.w3.org/2000/svg">
<path d="M38.8179 53.7438H55.1155L59.8764 56.8297H38.0988L28.3251 87.043C17.5258 82.8586 7.53065 73.1547 3.3402 62.2492C-1.12942 51.6835 -1.12947 38.4081 3.43724 27.8C7.71873 16.8884 18.0022 7.03895 28.9471 2.99111C37.5587 -0.574262 49.0832 -0.950523 58.2166 1.85323C68.6973 4.85421 78.5924 12.3672 84.3486 22.1743C90.7814 32.928 92.5869 46.5918 88.6786 58.8689C86.2086 67.0131 81.1139 74.8115 74.1106 80.3917L62.0793 60.3466L78.826 69.6834C78.9199 69.6834 78.9688 69.5802 78.92 69.4831L56.9845 50.5456L85.3528 54.8756C85.4499 54.8756 85.4892 54.8302 85.4892 54.7817L85.3072 54.639L58.5562 45.2597L86.354 38.5447C86.4482 38.5447 86.4482 38.4568 86.3996 38.4083L57.8857 40.2653L80.2126 23.3609C80.2612 23.2699 80.0669 23.2244 80.0184 23.3184L54.9394 36.0354L68.7852 11.6088C68.7852 11.5695 68.7852 11.4662 68.6973 11.5177L50.6064 32.7461L54.0778 4.85425C54.0778 4.80255 53.9807 4.75715 53.8865 4.80254L45.5662 31.8873L38.2807 3.99239C38.2322 3.94676 38.1322 3.89529 38.0865 3.99239L40.0922 32.928L22.9117 10.5678C22.8539 10.5161 22.8117 10.5679 22.7632 10.6133L35.7593 35.3585L11.1931 21.9345C11.1475 21.9345 11.0535 21.9862 11.0535 22.0285L32.8979 39.9706L5.01214 37.0272C4.91212 37.0789 4.91212 37.1637 5.01214 37.2093L32.0483 45.1199L5.15474 53.0213C5.10304 53.0609 5.10304 53.161 5.15474 53.2034L32.8979 49.9719L11.099 68.4876C11.0534 68.4876 11.0051 68.5815 11.099 68.6362L11.3903 68.539L28.85 59.3965L32.9495 52.8787H37.6072L34.3756 50.5939L45.1779 33.2645L38.8058 53.7343L38.8179 53.7441" fill="#919191"/>
<path d="M119.257 76.557H97.4941L114.921 14.3496H159.532L155.281 29.1118H132.514L129.595 39.7017H152.362L148.523 53.2895H125.759L119.257 76.557V76.557Z" fill="#919191"/>
<path d="M169.618 76.557H148.107L160.864 31.1114H182.374L169.618 76.557ZM183.543 26.7752H162.032L165.534 14.3496H187.044L183.543 26.7752Z" fill="#919191"/>
<path d="M225.426 76.557H204.331L205.83 71.4715C201.576 75.0551 197.243 77.6402 190.322 77.6402C183.315 77.6402 178.9 74.3025 178.9 67.2142C178.9 59.3795 181.986 47.7032 186.571 39.5317C189.906 33.4448 195.908 30.2769 202.996 30.2769C209.08 30.2769 213.583 32.9472 215.337 36.279L221.342 14.3496H242.853L225.426 76.557V76.557ZM209.25 44.6174C207.329 44.6174 205.415 45.206 204.331 47.8701C202.744 51.7056 201.327 55.4591 201.327 59.2096C201.327 60.9634 202.581 62.4623 204.662 62.4623C206.331 62.4623 207.414 61.9618 208.331 61.3822L212.67 46.4531C211.917 45.3668 210.582 44.6174 209.25 44.6174Z" fill="#919191"/>
<path d="M286.17 56.7105H256.488C255.9 59.1258 255.32 60.7977 255.32 62.7124C255.32 63.6318 255.487 65.9653 258.488 65.9653C261.489 65.9653 262.824 64.797 264.074 60.379H285.169C282.502 73.3054 267.16 77.7203 257.738 77.7203C244.979 77.7203 235.057 75.8875 235.057 63.6317C235.057 56.8772 238.473 45.7017 242.979 39.7847C248.399 32.6964 257.82 30.0322 266.496 30.0322C279.835 30.0322 288.504 32.7815 288.504 44.1179C288.504 46.8731 287.339 52.957 286.17 56.7105V56.7105ZM264.657 41.4536C261.99 41.4536 260.157 43.2863 258.989 47.8713H267.825C268.077 46.9549 268.41 45.5379 268.41 44.7034C268.41 42.2031 266.908 41.4536 264.657 41.4536Z" fill="#919191"/>
<path d="M307.791 76.557H286.277L303.704 14.3496H325.217L307.791 76.557Z" fill="#919191"/>
<path d="M336.214 76.557H314.697L327.457 31.1114H348.97L336.214 76.557V76.557ZM350.136 26.7752H328.625L332.127 14.3496H353.64L350.136 26.7752Z" fill="#919191"/>
<path d="M388.812 31.1107L390.685 41.3668H374.22L369.383 58.6294C368.968 59.9614 368.631 61.6273 368.631 62.7136C368.631 64.7132 369.469 65.3839 372.385 65.3839H376.972L373.802 76.5564H354.624C348.286 76.5564 345.867 73.4705 345.867 68.7976C345.867 66.8859 346.119 64.7951 346.787 62.4617L358.46 21.0215H379.973L377.136 31.1107H388.812" fill="#919191"/>
<path d="M97.0539 83.5444L102.416 83.5371L98.9989 94.7248L93.6523 94.7272L97.0539 83.5426V83.5444Z" fill="#919191"/>
<path d="M115.769 83.5547L123.613 83.5498L125.625 91.0114H125.679L127.949 83.5469L132.604 83.542L129.163 94.7054L121.659 94.7328L119.483 86.7616H119.447L117.068 94.7177L112.41 94.7201L115.769 83.5567V83.5547Z" fill="#919191"/>
<path d="M142.771 83.5588L148.676 83.5563L149.708 90.587L155.109 83.5502L160.574 83.543L151.565 94.7095L145.011 94.7143L142.771 83.5569V83.5588Z" fill="#919191"/>
<path d="M170.854 83.5624L183.052 83.5527L182.363 85.8132L175.351 85.8205L174.671 88.1145L181.247 88.1121L180.588 90.2666L174.016 90.2689L173.336 92.484L180.421 92.4767L179.708 94.7403L167.443 94.7501L170.854 83.5624V83.5624Z" fill="#919191"/>
<path d="M223.245 86.286L219.066 86.2883L219.895 83.5756L233.604 83.5635L232.779 86.2763L228.603 86.2811L226.042 94.6985L220.687 94.7057L223.245 86.2854V86.286Z" fill="#919191"/>
<path d="M244.698 83.5479L252.821 83.543L253.215 91.0076H253.249L258.092 83.5401L266.254 83.5303L262.865 94.718L257.895 94.7229L260.443 86.2965H260.404L254.368 94.7259L249.189 94.7331L248.458 86.3067H248.403L245.857 94.7088L241.309 94.7113L244.698 83.5479V83.5479Z" fill="#919191"/>
<path d="M300.388 83.5544L308.226 83.5495L310.244 91.0111H310.296L312.565 83.5434L317.217 83.541L313.812 94.7317L306.211 94.7099L304.099 86.7598H304.066L301.629 94.7129L296.975 94.7178L300.388 83.5544V83.5544Z" fill="#919191"/>
<path d="M330.076 86.2698L325.895 86.2723L326.723 83.5565L340.435 83.5469L339.61 86.2596L335.432 86.2643L332.874 94.709L327.512 94.7162L330.076 86.2686V86.2698Z" fill="#919191"/>
<path d="M199.487 86.9426C199.369 86.8183 199.363 86.6057 199.411 86.4327C199.587 85.8653 200.297 85.4921 201.429 85.4921C202.097 85.4896 203.122 85.565 203.416 85.7986C203.729 86.0261 203.829 86.369 203.72 86.7058H208.469C209.027 84.7092 207.771 83.4228 202.409 83.4258C197.314 83.4331 194.426 84.5242 193.682 86.9608C193.491 87.598 193.467 88.3808 193.992 88.9088C195.306 90.2136 201.229 90.7325 201.729 91.4365C201.83 91.5792 201.869 91.749 201.808 91.9493C201.535 92.8474 200.264 93.078 199.153 93.078C198.446 93.078 197.53 92.9263 197.266 92.635C197.017 92.3406 197.017 91.8916 197.16 91.6033L192.189 91.6131C191.689 93.3457 191.476 95.148 198.388 95.145C204.184 95.1377 206.839 93.7189 207.507 91.5129C207.837 90.4327 207.509 89.835 207.133 89.4496C205.847 88.1236 200.109 87.635 199.487 86.9432" fill="#919191"/>
<path d="M277.168 83.5654L289.367 83.5557L288.681 85.8163L281.665 85.8211L280.986 88.1151L287.561 88.1127L286.903 90.2671L280.33 90.2695L279.651 92.4876L286.736 92.4827L286.023 94.7434L273.758 94.7555L277.168 83.5649V83.5654Z" fill="#919191"/>
<path d="M417.853 31.1115L406.18 56.2938L406.513 31.1115H384.751L388.92 76.5572C388.386 79.2183 387.506 80.7173 385.837 81.4577C384.011 82.2709 379.881 82.1282 378.427 82.0463L378.163 82.061L374.734 94.4078L389.418 94.4223C398.09 94.4223 402.344 90.0618 408.513 80.3913L439.867 31.1104H417.853" fill="#919191"/>
<path d="M354.344 86.9164C354.226 86.7889 354.223 86.5765 354.268 86.4065C354.447 85.8361 355.154 85.4629 356.286 85.4629C356.954 85.4629 357.979 85.5386 358.274 85.7724C358.589 85.9969 358.689 86.3428 358.577 86.6796H363.326C363.887 84.683 362.628 83.3934 357.266 83.3994C352.172 83.4043 349.283 84.498 348.542 86.9346C348.348 87.5688 348.324 88.3546 348.849 88.8795C350.163 90.1873 356.086 90.7063 356.586 91.4103C356.69 91.5499 356.726 91.7228 356.665 91.9231C356.395 92.8212 355.121 93.0487 354.013 93.0518C353.303 93.0518 352.387 92.9001 352.123 92.6058C351.877 92.3115 351.877 91.8654 352.017 91.5771L347.047 91.582C346.546 93.3176 346.334 95.12 353.246 95.117C359.041 95.1073 361.697 93.6908 362.367 91.4818C362.695 90.4016 362.37 89.8038 361.991 89.4215C360.704 88.0955 354.966 87.607 354.344 86.9152" fill="#919191"/>
<path d="M421.245 75.7217C419.09 75.7217 417.348 73.977 417.348 71.8256C417.348 69.6743 419.09 67.9294 421.245 67.9294C423.396 67.9294 425.141 69.6743 425.141 71.8256C425.141 73.977 423.396 75.7217 421.245 75.7217ZM421.245 67.0889C418.632 67.0889 416.508 69.2161 416.508 71.8256C416.508 74.4352 418.632 76.5622 421.245 76.5622C423.851 76.5622 425.978 74.4352 425.978 71.8256C425.978 69.2161 423.851 67.0889 421.245 67.0889Z" fill="#919191"/>
<path d="M420.432 71.4992V70.1307H421.081C421.637 70.1185 422.243 70.155 422.243 70.8104C422.243 71.4659 421.637 71.4992 421.081 71.4992H420.432ZM423.142 70.8469C423.142 69.9032 422.592 69.3721 421.415 69.3721H419.576V74.2574H420.432V72.2578H421.081L422.304 74.2574H423.245L421.967 72.188C422.638 72.1062 423.142 71.6935 423.142 70.8469" fill="#919191"/>
<path d="M417.82 31.2223L406.184 56.3195L406.517 31.2223H384.831L388.985 76.5101C388.454 79.1622 387.577 80.655 385.914 81.3953C384.093 82.2025 379.979 82.06 378.528 81.9781L378.267 81.9926L374.848 94.3L389.479 94.3121C398.124 94.3121 402.363 89.9699 408.511 80.3327L439.756 31.2217H417.82V31.2223Z" fill="#919191"/>
</svg>
