<svg width="230" height="41" viewBox="0 0 230 41" fill="none" xmlns="http://www.w3.org/2000/svg">
<path d="M23.868 36.323V38H0V36.323H3.354V10.739H22.074V16.082H9.438V21.971H21.45V27.314H9.438V36.323H23.868ZM36.6719 36.323V38H23.8799V36.323H27.2339V10.739H33.3179V36.323H36.6719ZM40.0308 36.323V10.739H45.7248L59.1018 28.289V10.739H65.1858V36.323H68.9688V38H59.1018L46.1148 20.918V38H36.2478V36.323H40.0308ZM92.2667 36.323V38H68.5547V36.323H77.3687V16.004H69.6467V10.739H91.1747V16.004H83.4527V36.323H92.2667ZM95.6362 36.323V10.739H115.292V16.16H101.72V21.776H113.927V26.963H101.72V32.618H115.721V36.323H119.504V38H91.8532V36.323H95.6362ZM146.504 36.323V38H117.8V36.323H126.185C124.105 35.101 122.467 33.45 121.271 31.37C120.101 29.264 119.516 26.885 119.516 24.233C119.516 20.229 120.894 16.875 123.65 14.171C126.432 11.467 129.825 10.115 133.829 10.115C138.301 10.115 142.045 11.818 145.061 15.224L141.278 19.514C139.354 17.122 136.962 15.926 134.102 15.926C131.814 15.926 129.851 16.68 128.213 18.188C126.601 19.67 125.795 21.685 125.795 24.233C125.795 26.755 126.562 28.783 128.096 30.317C129.63 31.851 131.489 32.618 133.673 32.618C136.663 32.618 139.107 31.435 141.005 29.069L144.905 33.086C143.761 34.412 142.474 35.491 141.044 36.323H146.504ZM176.235 36.323V38H166.797V27.275H155.955V38H146.517V36.323H149.871V10.739H155.955V22.127H166.797V10.739H172.881V36.323H176.235Z" fill="#EE523C"/>
<path d="M189.429 16.177V20.027C188.925 20.391 188.386 20.664 187.812 20.846C187.243 21.0233 186.617 21.112 185.936 21.112C185.129 21.112 184.401 20.9883 183.752 20.741C183.103 20.489 182.548 20.139 182.086 19.691C181.629 19.2383 181.276 18.697 181.029 18.067C180.782 17.437 180.658 16.744 180.658 15.988C180.658 15.2227 180.777 14.525 181.015 13.895C181.258 13.265 181.601 12.726 182.044 12.278C182.487 11.8253 183.026 11.4753 183.661 11.228C184.296 10.9807 185.005 10.857 185.789 10.857C186.186 10.857 186.554 10.8873 186.895 10.948C187.236 11.004 187.551 11.088 187.84 11.2C188.129 11.3073 188.398 11.4403 188.645 11.599C188.892 11.753 189.123 11.928 189.338 12.124L188.953 12.74C188.892 12.8333 188.813 12.894 188.715 12.922C188.622 12.9453 188.517 12.922 188.4 12.852C188.288 12.7867 188.16 12.7073 188.015 12.614C187.87 12.5207 187.693 12.432 187.483 12.348C187.278 12.2593 187.033 12.1847 186.748 12.124C186.468 12.0633 186.134 12.033 185.747 12.033C185.182 12.033 184.671 12.1263 184.214 12.313C183.757 12.495 183.367 12.7587 183.045 13.104C182.723 13.4447 182.476 13.86 182.303 14.35C182.13 14.8353 182.044 15.3813 182.044 15.988C182.044 16.618 182.133 17.1827 182.31 17.682C182.492 18.1767 182.749 18.599 183.08 18.949C183.416 19.2943 183.822 19.558 184.298 19.74C184.774 19.922 185.308 20.013 185.901 20.013C186.368 20.013 186.781 19.9617 187.14 19.859C187.504 19.7517 187.859 19.6047 188.204 19.418V17.213H186.643C186.554 17.213 186.482 17.1873 186.426 17.136C186.375 17.0847 186.349 17.0217 186.349 16.947V16.177H189.429ZM192.433 10.689V21H191.187V10.689H192.433ZM197.443 13.797C197.961 13.797 198.427 13.8833 198.843 14.056C199.258 14.2287 199.613 14.4737 199.907 14.791C200.201 15.1083 200.425 15.4933 200.579 15.946C200.737 16.394 200.817 16.8957 200.817 17.451C200.817 18.011 200.737 18.515 200.579 18.963C200.425 19.411 200.201 19.7937 199.907 20.111C199.613 20.4283 199.258 20.6733 198.843 20.846C198.427 21.014 197.961 21.098 197.443 21.098C196.92 21.098 196.449 21.014 196.029 20.846C195.613 20.6733 195.259 20.4283 194.965 20.111C194.671 19.7937 194.444 19.411 194.286 18.963C194.132 18.515 194.055 18.011 194.055 17.451C194.055 16.8957 194.132 16.394 194.286 15.946C194.444 15.4933 194.671 15.1083 194.965 14.791C195.259 14.4737 195.613 14.2287 196.029 14.056C196.449 13.8833 196.92 13.797 197.443 13.797ZM197.443 20.125C198.143 20.125 198.665 19.8917 199.011 19.425C199.356 18.9537 199.529 18.298 199.529 17.458C199.529 16.6133 199.356 15.9553 199.011 15.484C198.665 15.0127 198.143 14.777 197.443 14.777C197.088 14.777 196.778 14.8377 196.512 14.959C196.25 15.0803 196.031 15.2553 195.854 15.484C195.681 15.7127 195.55 15.995 195.462 16.331C195.378 16.6623 195.336 17.038 195.336 17.458C195.336 18.298 195.508 18.9537 195.854 19.425C196.204 19.8917 196.733 20.125 197.443 20.125ZM203.65 19.292C203.879 19.6 204.128 19.817 204.399 19.943C204.674 20.069 204.975 20.132 205.302 20.132C205.969 20.132 206.48 19.8963 206.835 19.425C207.19 18.9537 207.367 18.2513 207.367 17.318C207.367 16.45 207.208 15.813 206.891 15.407C206.578 14.9963 206.13 14.791 205.547 14.791C205.141 14.791 204.786 14.8843 204.483 15.071C204.184 15.2577 203.907 15.5213 203.65 15.862V19.292ZM203.65 14.931C203.949 14.5857 204.285 14.3103 204.658 14.105C205.036 13.8997 205.47 13.797 205.96 13.797C206.375 13.797 206.749 13.8763 207.08 14.035C207.416 14.1937 207.701 14.4247 207.934 14.728C208.167 15.0267 208.345 15.3907 208.466 15.82C208.592 16.2493 208.655 16.7323 208.655 17.269C208.655 17.843 208.585 18.3657 208.445 18.837C208.305 19.3083 208.102 19.712 207.836 20.048C207.575 20.3793 207.255 20.6383 206.877 20.825C206.499 21.007 206.074 21.098 205.603 21.098C205.136 21.098 204.742 21.0117 204.42 20.839C204.103 20.6617 203.825 20.412 203.587 20.09L203.524 20.734C203.487 20.9113 203.379 21 203.202 21H202.397V10.689H203.65V14.931ZM214.074 17.808C213.5 17.8267 213.01 17.8733 212.604 17.948C212.203 18.018 211.874 18.1113 211.617 18.228C211.365 18.3447 211.181 18.4823 211.064 18.641C210.952 18.7997 210.896 18.977 210.896 19.173C210.896 19.3597 210.926 19.5207 210.987 19.656C211.048 19.7913 211.129 19.9033 211.232 19.992C211.339 20.076 211.463 20.139 211.603 20.181C211.748 20.2183 211.902 20.237 212.065 20.237C212.284 20.237 212.485 20.216 212.667 20.174C212.849 20.1273 213.019 20.062 213.178 19.978C213.341 19.894 213.495 19.7937 213.64 19.677C213.789 19.5603 213.934 19.4273 214.074 19.278V17.808ZM210.049 14.91C210.441 14.532 210.863 14.2497 211.316 14.063C211.769 13.8763 212.27 13.783 212.821 13.783C213.218 13.783 213.57 13.8483 213.878 13.979C214.186 14.1097 214.445 14.2917 214.655 14.525C214.865 14.7583 215.024 15.0407 215.131 15.372C215.238 15.7033 215.292 16.0673 215.292 16.464V21H214.739C214.618 21 214.524 20.9813 214.459 20.944C214.394 20.902 214.342 20.8227 214.305 20.706L214.165 20.034C213.978 20.2067 213.796 20.3607 213.619 20.496C213.442 20.6267 213.255 20.7387 213.059 20.832C212.863 20.9207 212.653 20.9883 212.429 21.035C212.21 21.0863 211.965 21.112 211.694 21.112C211.419 21.112 211.16 21.0747 210.917 21C210.674 20.9207 210.462 20.804 210.28 20.65C210.103 20.496 209.96 20.3023 209.853 20.069C209.75 19.831 209.699 19.551 209.699 19.229C209.699 18.949 209.776 18.6807 209.93 18.424C210.084 18.1627 210.334 17.9317 210.679 17.731C211.024 17.5303 211.475 17.367 212.03 17.241C212.585 17.1103 213.267 17.0357 214.074 17.017V16.464C214.074 15.9133 213.955 15.498 213.717 15.218C213.479 14.9333 213.131 14.791 212.674 14.791C212.366 14.791 212.107 14.8307 211.897 14.91C211.692 14.9847 211.512 15.071 211.358 15.169C211.209 15.2623 211.078 15.3487 210.966 15.428C210.859 15.5027 210.751 15.54 210.644 15.54C210.56 15.54 210.488 15.519 210.427 15.477C210.366 15.4303 210.315 15.3743 210.273 15.309L210.049 14.91ZM218.478 10.689V21H217.232V10.689H218.478ZM186.412 29.537C186.37 29.607 186.323 29.6607 186.272 29.698C186.225 29.7307 186.167 29.747 186.097 29.747C186.018 29.747 185.924 29.7073 185.817 29.628C185.71 29.5487 185.574 29.4623 185.411 29.369C185.252 29.271 185.059 29.1823 184.83 29.103C184.606 29.0237 184.333 28.984 184.011 28.984C183.708 28.984 183.439 29.026 183.206 29.11C182.977 29.1893 182.784 29.299 182.625 29.439C182.471 29.579 182.354 29.7447 182.275 29.936C182.196 30.1227 182.156 30.3257 182.156 30.545C182.156 30.825 182.224 31.0583 182.359 31.245C182.499 31.427 182.681 31.5833 182.905 31.714C183.134 31.8447 183.39 31.959 183.675 32.057C183.964 32.1503 184.258 32.2483 184.557 32.351C184.86 32.4537 185.154 32.5703 185.439 32.701C185.728 32.827 185.985 32.988 186.209 33.184C186.438 33.38 186.62 33.6203 186.755 33.905C186.895 34.1897 186.965 34.5397 186.965 34.955C186.965 35.3937 186.89 35.8067 186.741 36.194C186.592 36.5767 186.372 36.9103 186.083 37.195C185.798 37.4797 185.446 37.7037 185.026 37.867C184.611 38.0303 184.137 38.112 183.605 38.112C182.952 38.112 182.359 37.9953 181.827 37.762C181.295 37.524 180.84 37.2043 180.462 36.803L180.854 36.159C180.891 36.1077 180.936 36.0657 180.987 36.033C181.043 35.9957 181.104 35.977 181.169 35.977C181.23 35.977 181.297 36.0027 181.372 36.054C181.451 36.1007 181.54 36.1613 181.638 36.236C181.736 36.3107 181.848 36.3923 181.974 36.481C182.1 36.5697 182.242 36.6513 182.401 36.726C182.564 36.8007 182.749 36.8637 182.954 36.915C183.159 36.9617 183.39 36.985 183.647 36.985C183.969 36.985 184.256 36.9407 184.508 36.852C184.76 36.7633 184.972 36.6397 185.145 36.481C185.322 36.3177 185.458 36.124 185.551 35.9C185.644 35.676 185.691 35.4263 185.691 35.151C185.691 34.8477 185.621 34.6003 185.481 34.409C185.346 34.213 185.166 34.0497 184.942 33.919C184.718 33.7883 184.461 33.6787 184.172 33.59C183.883 33.4967 183.589 33.4033 183.29 33.31C182.991 33.212 182.697 33.1 182.408 32.974C182.119 32.848 181.862 32.6847 181.638 32.484C181.414 32.2833 181.232 32.0337 181.092 31.735C180.957 31.4317 180.889 31.0583 180.889 30.615C180.889 30.2603 180.957 29.9173 181.092 29.586C181.232 29.2547 181.433 28.9607 181.694 28.704C181.96 28.4473 182.284 28.242 182.667 28.088C183.054 27.934 183.498 27.857 183.997 27.857C184.557 27.857 185.066 27.9457 185.523 28.123C185.985 28.3003 186.391 28.557 186.741 28.893L186.412 29.537ZM194.283 30.909V38H193.541C193.364 38 193.252 37.9137 193.205 37.741L193.107 36.978C192.799 37.3187 192.454 37.594 192.071 37.804C191.688 38.0093 191.25 38.112 190.755 38.112C190.368 38.112 190.025 38.049 189.726 37.923C189.432 37.7923 189.185 37.6103 188.984 37.377C188.783 37.1437 188.632 36.8613 188.529 36.53C188.431 36.1987 188.382 35.8323 188.382 35.431V30.909H189.628V35.431C189.628 35.9677 189.749 36.383 189.992 36.677C190.239 36.971 190.615 37.118 191.119 37.118C191.488 37.118 191.831 37.0317 192.148 36.859C192.47 36.6817 192.766 36.439 193.037 36.131V30.909H194.283ZM196.258 38V30.909H197.007C197.185 30.909 197.294 30.9953 197.336 31.168L197.427 31.896C197.689 31.574 197.983 31.3103 198.309 31.105C198.636 30.8997 199.014 30.797 199.443 30.797C199.919 30.797 200.304 30.93 200.598 31.196C200.897 31.462 201.112 31.8213 201.242 32.274C201.345 32.0173 201.476 31.7957 201.634 31.609C201.798 31.4223 201.98 31.2683 202.18 31.147C202.381 31.0257 202.593 30.937 202.817 30.881C203.046 30.825 203.277 30.797 203.51 30.797C203.884 30.797 204.215 30.8577 204.504 30.979C204.798 31.0957 205.046 31.2683 205.246 31.497C205.452 31.7257 205.608 32.008 205.715 32.344C205.823 32.6753 205.876 33.0557 205.876 33.485V38H204.623V33.485C204.623 32.9297 204.502 32.5097 204.259 32.225C204.017 31.9357 203.667 31.791 203.209 31.791C203.004 31.791 202.808 31.8283 202.621 31.903C202.439 31.973 202.278 32.078 202.138 32.218C201.998 32.358 201.886 32.5353 201.802 32.75C201.723 32.96 201.683 33.205 201.683 33.485V38H200.43V33.485C200.43 32.9157 200.316 32.491 200.087 32.211C199.859 31.931 199.525 31.791 199.086 31.791C198.778 31.791 198.494 31.875 198.232 32.043C197.971 32.2063 197.731 32.4303 197.511 32.715V38H196.258ZM207.77 38V30.909H208.519C208.697 30.909 208.806 30.9953 208.848 31.168L208.939 31.896C209.201 31.574 209.495 31.3103 209.821 31.105C210.148 30.8997 210.526 30.797 210.955 30.797C211.431 30.797 211.816 30.93 212.11 31.196C212.409 31.462 212.624 31.8213 212.754 32.274C212.857 32.0173 212.988 31.7957 213.146 31.609C213.31 31.4223 213.492 31.2683 213.692 31.147C213.893 31.0257 214.105 30.937 214.329 30.881C214.558 30.825 214.789 30.797 215.022 30.797C215.396 30.797 215.727 30.8577 216.016 30.979C216.31 31.0957 216.558 31.2683 216.758 31.497C216.964 31.7257 217.12 32.008 217.227 32.344C217.335 32.6753 217.388 33.0557 217.388 33.485V38H216.135V33.485C216.135 32.9297 216.014 32.5097 215.771 32.225C215.529 31.9357 215.179 31.791 214.721 31.791C214.516 31.791 214.32 31.8283 214.133 31.903C213.951 31.973 213.79 32.078 213.65 32.218C213.51 32.358 213.398 32.5353 213.314 32.75C213.235 32.96 213.195 33.205 213.195 33.485V38H211.942V33.485C211.942 32.9157 211.828 32.491 211.599 32.211C211.371 31.931 211.037 31.791 210.598 31.791C210.29 31.791 210.006 31.875 209.744 32.043C209.483 32.2063 209.243 32.4303 209.023 32.715V38H207.77ZM220.598 30.909V38H219.352V30.909H220.598ZM220.864 28.683C220.864 28.8043 220.838 28.9187 220.787 29.026C220.74 29.1287 220.675 29.222 220.591 29.306C220.512 29.3853 220.416 29.4483 220.304 29.495C220.197 29.5417 220.082 29.565 219.961 29.565C219.84 29.565 219.725 29.5417 219.618 29.495C219.515 29.4483 219.424 29.3853 219.345 29.306C219.266 29.222 219.203 29.1287 219.156 29.026C219.109 28.9187 219.086 28.8043 219.086 28.683C219.086 28.5617 219.109 28.4473 219.156 28.34C219.203 28.228 219.266 28.1323 219.345 28.053C219.424 27.969 219.515 27.9037 219.618 27.857C219.725 27.8103 219.84 27.787 219.961 27.787C220.082 27.787 220.197 27.8103 220.304 27.857C220.416 27.9037 220.512 27.969 220.591 28.053C220.675 28.1323 220.74 28.228 220.787 28.34C220.838 28.4473 220.864 28.5617 220.864 28.683ZM224.822 38.112C224.262 38.112 223.831 37.9557 223.527 37.643C223.229 37.3303 223.079 36.88 223.079 36.292V31.952H222.225C222.151 31.952 222.088 31.931 222.036 31.889C221.985 31.8423 221.959 31.7723 221.959 31.679V31.182L223.121 31.035L223.408 28.844C223.422 28.774 223.453 28.718 223.499 28.676C223.551 28.6293 223.616 28.606 223.695 28.606H224.325V31.049H226.376V31.952H224.325V36.208C224.325 36.5067 224.398 36.7283 224.542 36.873C224.687 37.0177 224.874 37.09 225.102 37.09C225.233 37.09 225.345 37.0737 225.438 37.041C225.536 37.0037 225.62 36.964 225.69 36.922C225.76 36.88 225.819 36.8427 225.865 36.81C225.917 36.7727 225.961 36.754 225.998 36.754C226.064 36.754 226.122 36.7937 226.173 36.873L226.537 37.468C226.323 37.6687 226.064 37.8273 225.76 37.944C225.457 38.056 225.144 38.112 224.822 38.112Z" fill="#414246"/>
</svg>
