<svg width="272" height="99" viewBox="0 0 272 99" fill="none" xmlns="http://www.w3.org/2000/svg">
<path d="M158.505 59.1238C158.505 79.4673 147.412 81.9063 136.319 81.9063C117.246 81.9063 113.187 72.1414 113.187 58.1737V18.7789H106.152V14.9829H132.802V18.7789H125.227V57.0224C125.227 70.5162 128.744 77.2295 138.416 77.2295C148.291 77.2295 153.094 72.3471 153.094 58.3101V18.7789H145.992V14.9829H164.93V18.7789H158.505V59.1238V59.1238ZM177.154 77.3637V18.7789H169.734V14.9829H199.292C211.872 14.9829 218.095 22.1009 218.095 30.4418C218.095 39.3236 210.046 44.3402 202.876 45.8335C216.81 47.1212 220.597 56.0723 220.597 62.6515C220.597 76.076 209.167 81.1618 197.938 81.1618H169.259V77.3637H177.154V77.3637ZM206.055 31.1884C206.055 25.0183 202.876 18.7789 195.91 18.7789H188.228V44.206H195.098C202.47 44.206 206.055 37.9666 206.055 31.1884V31.1884ZM208.423 62.6515C208.423 53.8345 204.635 47.9349 195.775 47.9349H188.228V77.3637H194.353C203.756 77.3637 208.423 71.8039 208.423 62.6515V62.6515ZM250.089 17.8981C243.121 17.8981 238.657 22.0339 238.657 29.2211C238.657 35.7288 245.692 38.8496 252.524 41.1545C256.581 42.5808 261.722 44.4765 265.239 47.8678C269.095 51.5297 271.191 56.4121 271.057 62.58C270.785 74.111 262.737 81.9063 248.532 81.9756C243.189 81.9756 234.869 80.755 229.864 77.8398L229.322 60.4808H233.517C233.855 72.1414 239.334 78.2444 248.938 78.2444C256.648 78.2444 260.91 73.0915 260.91 65.2269C260.91 58.4465 255.297 55.529 246.773 52.6832C244 51.7331 238.522 49.6988 234.666 45.9028C231.216 42.4422 229.594 38.1052 229.594 33.4933C229.594 19.9995 239.198 14.167 251.103 14.167C255.837 14.167 262.94 15.8637 267.065 18.2356L267.471 33.2898H263.278C262.398 22.5771 257.731 17.8981 250.089 17.8981V17.8981Z" fill="#919191"/>
<path d="M72.8641 28.3735L71.1012 29.8468L72.9625 35.9342L67.3794 32.8894L65.5181 34.3625L71.6889 37.7025L65.1272 43.0029L63.3642 40.6467L65.7148 38.7822L63.951 36.7188L61.6013 38.5855L59.8392 36.3276L62.1889 34.4609L60.426 32.2031L48.3796 42.2183L59.8392 51.4466L61.8947 48.8937C63.3642 48.992 64.4411 50.0717 65.0289 51.4466L62.9725 53.9996L64.2453 54.981C67.0851 52.428 70.8078 50.7603 74.6271 50.7603C82.6574 50.7603 88.9248 57.3373 88.9248 65.3875C88.9248 68.0388 88.2396 70.887 86.7709 73.2432L88.9248 74.9109C88.8272 76.4825 87.3586 78.1502 85.8891 78.5437L83.8318 76.8738C80.9929 79.6235 77.271 81.0967 73.3534 81.0967C65.3222 81.0967 59.0548 74.7164 59.0548 66.5679C59.0548 63.9165 59.8392 61.1668 61.0136 58.9089L59.8392 57.8269L57.782 60.5766C56.3125 60.3821 55.0396 59.3962 54.6487 57.8269L56.7051 55.3722L47.0085 47.322V60.0848L50.241 60.1832C50.6328 60.6749 50.927 61.3635 50.927 62.1482C50.927 62.8345 50.6328 63.6214 50.3384 64.2094H47.0085V65.781C54.0602 66.9591 59.9367 72.9481 59.9367 80.2114C59.9367 87.772 54.1577 93.7633 47.0085 94.9392V97.4944C46.3233 97.8834 45.4414 98.1808 44.6587 98.1808C43.7769 98.1808 42.7974 97.8834 42.0139 97.4944V94.9392C34.8655 93.7633 29.2823 87.772 29.2823 80.2114C29.2823 72.9481 34.8655 66.9591 42.0139 65.8793V64.2094H38.6847C38.292 63.6214 38.0963 62.8345 38.0963 62.1482C38.0963 61.3635 38.292 60.6749 38.6847 60.0848H42.0139V47.322L32.2206 55.3722L34.3753 57.8269C33.8852 59.3962 32.6123 60.3821 31.1437 60.5766L29.0865 57.8269L27.8128 58.9089C29.1848 61.1668 29.87 63.9165 29.87 66.5679C29.87 74.7164 23.6026 81.0967 15.5723 81.0967C11.7521 81.0967 7.93192 79.6235 5.19052 76.8738L3.03578 78.5437C1.66455 78.1502 0.195921 76.4825 0 74.9109L2.05634 73.2432C0.783573 70.887 0 68.0388 0 65.3875C0 57.3373 6.26737 50.7603 14.2986 50.7603C18.2154 50.7603 21.9372 52.428 24.777 54.981L25.9533 54.0957L23.896 51.4466C24.3862 50.0717 25.6589 49.0903 27.1276 48.8937L29.1848 51.4466L40.6436 42.2183L28.5972 32.2031L26.8342 34.4609L29.1848 36.3276L27.4219 38.5855L25.0713 36.7188L23.3083 38.7822L25.5606 40.6467L23.7985 43.0029L17.3344 37.7025L23.4067 34.3625L21.6438 32.8894L16.0616 35.9342L17.922 29.8468L16.159 28.3735L14.1027 35.0511L7.54107 29.7484L9.30314 27.5889L11.5562 29.4555L13.4176 27.296L11.0661 25.2326L12.8291 23.1692L15.1796 24.9397L16.8442 22.8763L11.7521 18.8523C12.2415 17.1802 13.3192 15.8075 14.8863 14.8239L42.0139 37.0161V22.1878H39.2723V25.0358H36.53V22.1878H33.6893V25.0358H30.8494V16.6905L37.3127 19.4381V17.0818L31.3395 14.6294L37.3127 12.2731V10.0152L30.8494 12.5682V4.12456H33.6893V7.16716H36.53V4.12456H39.2723V7.16716H42.0139V0.491779C42.7974 0.19669 43.6793 0 44.5603 0C45.3438 0 46.2249 0.19669 47.0085 0.491779V37.0161L74.137 14.8239C75.6056 15.8075 76.6834 17.1802 77.271 18.8523L72.0806 22.8763L73.8435 24.9397L76.1941 23.1692L77.9563 25.2326L75.6056 27.296L77.3686 29.4555L79.72 27.5889L81.4821 29.7484L74.9205 35.0511L72.8641 28.3735V28.3735ZM17.4318 68.5285C17.4318 70.887 19.1957 72.3579 21.252 72.5547L17.8245 75.206C15.4739 74.3207 13.3192 71.4749 13.3192 69.0202C13.3192 68.2356 13.5151 67.7437 13.7109 67.1558C13.4176 67.1558 13.2208 67.2542 13.025 67.2542C9.89168 67.2542 7.2468 64.3077 6.66004 61.2652L10.1851 58.5154C10.0867 58.9089 10.0867 59.2018 10.0867 59.4968C10.0867 61.4596 11.948 63.228 13.9068 63.228C15.9632 63.228 17.922 61.4596 17.922 59.3962C17.922 56.8477 15.9632 55.1778 13.5151 55.1778C8.71638 55.1778 4.01516 59.7919 4.01516 65.8793C4.01516 67.6454 4.40606 69.3153 5.19052 70.7863L7.34521 69.1186C8.81389 69.8049 9.9892 71.2782 10.381 72.9481L8.22713 74.6158C10.2835 76.3841 12.8291 77.1688 15.4739 77.1688C20.9578 77.1688 25.3656 72.7514 25.3656 68.8235C25.3656 66.5679 23.7985 64.6028 21.4479 64.6028C19.2932 64.6028 17.4318 66.2705 17.4318 68.5285V68.5285ZM46.5192 76.9743C46.5192 79.1316 48.2821 80.9 50.3384 80.9C51.808 80.9 52.3948 80.312 53.4726 79.4267V83.8464C52.3948 84.4343 51.3179 84.7294 50.1426 84.7294C47.7928 84.7294 45.834 84.0409 44.5603 81.9797C43.1892 84.0409 41.2303 84.7294 38.8797 84.7294C37.8028 84.7294 36.6275 84.4343 35.5506 83.8464V79.4267C36.53 80.4081 37.3127 80.9 38.6847 80.9C40.8394 80.9 42.504 79.1316 42.504 76.9743C42.504 74.9109 41.1329 73.0465 38.8797 73.0465C34.8655 73.0465 33.2 76.8738 33.2 80.4081C33.2 85.6125 37.0201 90.0299 42.0139 90.9152V88.2639C42.7974 87.8704 43.6793 87.772 44.4628 87.772C45.3438 87.772 46.2249 87.8704 47.0085 88.2639V90.9152C51.6121 90.2267 55.8232 85.3174 55.8232 80.4081C55.8232 76.7754 54.3536 73.0465 50.1426 73.0465C47.9887 73.0465 46.5192 74.9109 46.5192 76.9743V76.9743ZM70.9053 59.3962C70.9053 61.3635 72.9625 63.228 75.0188 63.228C76.9768 63.228 78.8381 61.4596 78.8381 59.4968C78.8381 59.2018 78.7397 58.9089 78.7397 58.5154L82.1681 61.2652C81.5796 64.6028 78.6423 67.547 75.2148 67.1558C75.4106 67.7437 75.5081 68.2356 75.5081 69.0202C75.5081 71.4749 73.3534 74.3207 71.0037 75.206L67.5753 72.5547C69.73 72.3579 71.493 70.887 71.493 68.5285C71.493 66.2705 69.5341 64.6028 67.3794 64.6028C65.1272 64.6028 63.4626 66.5679 63.4626 68.9219C63.4626 71.77 66.8893 77.1688 73.4517 77.1688C76.0966 77.1688 78.6423 76.3841 80.6011 74.6158L78.4463 72.9481C78.9356 71.2782 79.915 69.8049 81.4821 69.1186L83.6368 70.7863C84.4204 69.3153 84.9105 67.6454 84.9105 65.8793C84.9105 61.1668 81.2862 55.1778 75.5081 55.1778C73.06 55.1778 70.9053 56.8477 70.9053 59.3962V59.3962Z" fill="#919191"/>
</svg>
