<svg width="470" height="100" viewBox="0 0 470 100" fill="none" xmlns="http://www.w3.org/2000/svg">
<path fill-rule="evenodd" clip-rule="evenodd" d="M176.822 72.6852V73.3H154.03V64.4259L154.193 64.4H154.022C154.03 64.3926 154.022 41.0963 154.022 41.0963C153.974 39.737 154.474 33.6667 147.57 33.7333C147.574 33.7518 140.481 33.8518 140.644 42.3926V42.4L140.622 65.4593C140.826 72.5555 145.063 72.7037 145.078 72.7037V73.2963H122.033V73.2926H108.907C108.4 73.3518 92.3778 73.8741 91.7333 58.9518V50.8852C91.7333 50.8852 85.3852 52.2963 83.4 53.8185C83.4 53.8185 78.3185 57.0407 81.6704 62.5704C81.6704 62.5704 84.163 66.9407 92.2185 65.3259L88.2889 73.3148H80.5259C80.5259 73.3148 62.4074 73.6852 60.2852 60.3741C60.2852 60.2815 58.6556 49.9296 71.0259 45.737C71.0259 45.737 75.2593 44.2481 83.3074 42.8259C83.3963 42.8259 90.1852 41.8556 90.8185 38.1741C90.9771 37.4291 90.8981 36.6532 90.5926 35.9556C90.7037 36.2444 87.5074 27.8518 67.963 36.337C68.0444 36.4296 71.9852 24.0704 71.9852 24.0704C71.9852 24.0704 90.3926 18.6593 103.237 26.5444C103.152 26.6296 109.948 30.2407 109.856 41.5704L110.059 57.237C110.033 57.4593 110.044 65.263 117.726 65.7C117.726 65.7741 120.452 65.7518 122.015 65.7444V31.5444C122.015 31.3519 122.433 24.2333 117.681 23.9148V23.2593L140.652 22.3667L140.644 28.1815C141.893 26.9481 146.963 22.4333 154.459 22.2926C154.459 22.2926 172.337 21.6667 172.307 39.1815C172.315 39.1815 172.337 64.3889 172.337 64.3889C172.196 72.5667 176.826 72.6852 176.826 72.6852H176.822ZM0 0.87037V0.118519H24.9259L42.8148 52.3518L56.0444 10.4444C56.0444 10.4444 58.7481 3.39259 51.5111 0.6V0H71.4778L46.2481 73.8593L35.7481 69.8111C35.7481 69.8111 27.2444 67.3 22.7185 54.5444L6.3037 9.22222C6.3037 9.22222 4.23704 1.9 0 0.87037ZM444.267 64.4C444.148 73.1592 448.807 72.6963 448.815 72.6963V73.3148L425.363 73.3V73.2926L425.356 73.3V41.7926L425.348 41.1407C425.348 41.437 425.348 33.0926 418.033 33.0037C417.944 33.0926 409.448 32.1889 409.448 48.0667C409.363 48.1518 409.363 66.637 423.726 64.263C423.726 64.337 418.689 73.2667 418.689 73.2667C418.689 73.2667 407.044 77.2815 397.389 66.9667C397.389 66.9667 390.044 60.5815 390.044 48.0667C390.13 48.1518 389.8 36.2815 397.389 28.7556C397.311 29 409.104 15.6778 425.348 25.9556V9.2963C425.348 9.11481 425.759 1.98889 421.007 1.67037V1.02593L444.248 0.125926L444.263 64.4H444.267ZM374.474 28.9741C379.567 19.3889 389.341 22.3593 389.341 22.3593V34.8926C373.841 32.3222 374.489 43.9926 374.474 43.9222H374.467L374.459 64.3778C374.359 73.0518 378.807 72.7111 379.026 72.7V73.3H355.841V73.2926H342.426C341.941 73.3518 325.907 73.8741 325.278 58.9518V50.8852C325.278 50.8852 318.907 52.2963 316.926 53.8185C316.926 53.8185 311.859 57.0407 315.211 62.5704C315.211 62.5704 317.693 66.9407 325.752 65.3259L321.822 73.3222H314.044C314.044 73.3222 295.941 73.6852 293.818 60.3704C293.818 60.2778 292.189 49.9222 304.559 45.7444C304.559 45.7444 308.789 44.2481 316.833 42.8259C316.926 42.8259 323.711 41.8556 324.344 38.1778C324.51 37.4323 324.432 36.6535 324.122 35.9556C324.218 36.2518 321.037 27.8518 301.485 36.337C301.596 36.4296 305.522 24.0704 305.522 24.0704C305.522 24.0704 323.937 18.6593 336.781 26.5444C336.685 26.6407 343.474 30.2481 343.393 41.5593L343.593 57.237C343.559 57.4704 343.567 65.263 351.259 65.6926C351.259 65.7667 354.333 65.7518 355.83 65.7444V61.7074L355.837 31.5444C355.837 31.3519 356.244 24.2222 351.5 23.9074V23.2704L374.474 22.3704V28.9741V28.9741Z" fill="#919191"/>
<path fill-rule="evenodd" clip-rule="evenodd" d="M203.356 50.0553C210.382 50.0553 209.567 40.2886 209.567 40.1405C209.419 31.7553 203.371 32.0035 203.371 32.0035C196.708 32.0035 196.974 40.3738 196.897 40.2886C196.167 49.5738 202.856 50.1701 203.356 50.0553V50.0553ZM255.83 22.2961V54.9405C255.83 54.9405 255.667 62.0146 262.119 61.9516C262.089 61.8368 268.941 62.9849 269.193 53.2479C269.204 53.259 269.204 53.2738 269.215 53.2738L269.223 47.3405V31.5442C269.223 31.3516 269.634 24.2331 264.882 23.9146V23.259L287.852 22.3664V64.3886C287.841 64.5664 287.43 72.4701 292.408 72.6998V73.2923H269.193L269.2 67.3294C268.256 68.296 263.078 73.2109 255.263 73.359C255.263 73.359 237.063 73.996 237.1 56.4627C237.034 56.3294 237.071 37.7923 237.089 31.4627H223.089C223.619 31.8998 224.308 32.822 224.311 32.822C232.171 42.8849 224.534 51.2553 224.463 51.3331C219.423 58.3886 203.148 60.3701 203.148 60.3701L202.137 60.4849C196.626 60.6775 198.378 63.4738 198.397 63.4886C199.193 65.3516 203.163 65.059 203.163 65.059H212.482C231.348 64.9961 233.36 77.3553 233.437 77.3553C236.537 94.6923 219.085 99.8627 201.66 99.4072C184.371 99.5183 177.963 91.9923 178.03 92.0516C173.641 86.9664 175.96 79.8664 183.734 77.7146C189.482 76.1294 196.274 77.7146 196.274 77.7146C191.111 78.4368 192.026 83.6923 192.037 83.7294C193.767 89.9405 202.6 90.0035 203.134 90.0109C214.415 89.4294 214.737 83.9368 214.737 81.2516C214.737 77.7072 211.793 75.5775 211.793 75.5775C207.704 72.5738 199.967 73.522 194.582 73.2886C187.034 72.859 185.074 65.7664 184.715 63.5961C184.363 61.4035 184.771 60.522 186.03 59.7146C188.308 58.3738 193.485 57.7849 192.897 57.7961L193.008 57.7738C192.911 57.7516 192.852 57.7516 192.845 57.7516C186.352 55.6886 182.497 50.222 182.426 50.222C174.174 38.422 183.797 29.1183 183.797 29.1183C189.319 23.7923 196.334 22.5998 202.6 22.2961H255.834H255.83ZM451.789 9.38124C451.789 13.7516 455.378 17.3146 459.793 17.3146C464.2 17.3146 467.782 13.7516 467.782 9.38124C467.782 5.01087 464.204 1.4442 459.793 1.4442C455.378 1.4442 451.793 5.00716 451.793 9.38124H451.789ZM450.508 9.38124C450.508 4.31087 454.663 0.173828 459.793 0.173828C464.908 0.173828 469.074 4.31087 469.074 9.38124C469.074 14.4553 464.908 18.5886 459.793 18.5886C457.341 18.5975 454.986 17.6328 453.245 15.9064C451.504 14.1799 450.519 11.8331 450.508 9.38124V9.38124Z" fill="#919191"/>
<path fill-rule="evenodd" clip-rule="evenodd" d="M457.782 9.9628V14.8591H456.252V4.01465H460.163C462.004 4.01465 463.889 4.58872 463.889 6.73317C463.909 7.33966 463.716 7.93396 463.342 8.41201C462.968 8.89006 462.438 9.22139 461.845 9.34798V9.38132C463.152 9.68872 463.326 10.3887 463.496 11.5998C463.663 12.6813 463.789 13.8369 464.185 14.8591H462.556C462.422 14.2184 462.245 13.5109 462.167 12.8591C462.048 11.8887 462.048 11.0035 461.548 10.4517C461.111 9.9628 460.5 10.0072 459.896 9.9628H457.782V9.9628ZM457.745 8.67391H460.248C461.93 8.59613 462.307 7.84058 462.307 6.98872C462.307 6.12946 461.93 5.37391 460.248 5.30354H457.741V8.67391H457.745Z" fill="#919191"/>
</svg>
